<svg xmlns="http://www.w3.org/2000/svg" xmlns:svg="http://www.w3.org/2000/svg" id="svg2" width="600" height="300" version="1.0"><defs id="defs4"><marker id="Arrow2Lend" orient="auto" refX="0" refY="0" style="overflow:visible"><path id="path3688" style="font-size:12;fill-rule:evenodd;stroke-width:.625;stroke-linejoin:round" d="M 8.7185878,4.0337352 L -2.2072895,0.016013256 L 8.7185884,-4.0017078 C 6.9730900,-1.6296469 6.9831476,1.6157441 8.7185878,4.0337352 z" transform="scale(1.1) rotate(180) translate(1,0)"/></marker><marker id="Arrow1Lend" orient="auto" refX="0" refY="0" style="overflow:visible"><path id="path3670" d="M 0.0,0.0 L 5.0,-5.0 L -12.5,0.0 L 5.0,5.0 L 0.0,0.0 z" style="fill-rule:evenodd;stroke:#000;stroke-width:1pt;marker-start:none" transform="scale(0.8) rotate(180) translate(12.5,0)"/></marker><marker id="Arrow2Mend" orient="auto" refX="0" refY="0" style="overflow:visible"><path id="path3694" style="font-size:12;fill-rule:evenodd;stroke-width:.625;stroke-linejoin:round" d="M 8.7185878,4.0337352 L -2.2072895,0.016013256 L 8.7185884,-4.0017078 C 6.9730900,-1.6296469 6.9831476,1.6157441 8.7185878,4.0337352 z" transform="scale(0.6) rotate(180) translate(0,0)"/></marker><marker id="marker3936" orient="auto" refX="0" refY="0" style="overflow:visible"><path id="path3938" style="font-size:12;fill-rule:evenodd;stroke-width:.625;stroke-linejoin:round" d="M 8.7185878,4.0337352 L -2.2072895,0.016013256 L 8.7185884,-4.0017078 C 6.9730900,-1.6296469 6.9831476,1.6157441 8.7185878,4.0337352 z" transform="scale(1.1) rotate(180) translate(1,0)"/></marker><marker id="marker3932" orient="auto" refX="0" refY="0" style="overflow:visible"><path id="path3934" d="M 0.0,0.0 L 5.0,-5.0 L -12.5,0.0 L 5.0,5.0 L 0.0,0.0 z" style="fill-rule:evenodd;stroke:#000;stroke-width:1pt;marker-start:none" transform="scale(0.8) rotate(180) translate(12.5,0)"/></marker><marker id="marker3928" orient="auto" refX="0" refY="0" style="overflow:visible"><path id="path3930" style="font-size:12;fill-rule:evenodd;stroke-width:.625;stroke-linejoin:round" d="M 8.7185878,4.0337352 L -2.2072895,0.016013256 L 8.7185884,-4.0017078 C 6.9730900,-1.6296469 6.9831476,1.6157441 8.7185878,4.0337352 z" transform="scale(0.6) rotate(180) translate(0,0)"/></marker></defs><metadata id="metadata7"/><g id="layer1"><g id="g4092" transform="matrix(1.4456722,0,0,1.4450581,32.610503,-77.910822)"><path id="path4094" d="M 241,164.40942 A 48.5,28 0 1 1 144,164.40942 A 48.5,28 0 1 1 241,164.40942 z" transform="translate(-11,-6)" style="opacity:1;fill:#3465a4;fill-opacity:1;stroke:#204a87;stroke-width:2.41273284;stroke-linecap:round;stroke-linejoin:miter;stroke-miterlimit:4;stroke-dasharray:none;stroke-dashoffset:0;stroke-opacity:1"/><path id="path4096" d="M 147.81331,175.30492 C 145.358,171.95542 144,168.27342 144,164.40942 C 144,148.95342 165.728,136.40942 192.5,136.40942 C 205.886,136.40942 218.011,139.54542 226.7895,144.61342 C 231.17875,147.14742 234.73137,150.16442 237.18669,153.51392 C 188.16058,147.96257 190.2741,177.28904 147.81331,175.30492 z" style="opacity:.10526315;fill:#fff;fill-opacity:1;stroke:none;stroke-width:2;stroke-linecap:round;stroke-linejoin:miter;stroke-miterlimit:4;stroke-dashoffset:0;stroke-opacity:1" transform="translate(-11,-6)"/><text id="text4098" x="182" y="165.409" style="font-size:16px;font-style:normal;font-variant:normal;font-weight:400;font-stretch:normal;text-align:center;line-height:125%;writing-mode:lr-tb;text-anchor:middle;fill:#fff;fill-opacity:1;stroke:none;stroke-width:1px;stroke-linecap:butt;stroke-linejoin:miter;stroke-opacity:1;font-family:Bitstream Vera Sans;-inkscape-font-specification:Bitstream Vera Sans" xml:space="preserve"><tspan id="tspan4100" x="182" y="165.409">Docbook</tspan></text></g><g id="g4102" transform="matrix(1.3429121,0,0,1.3423417,221.26146,-155.63957)"><path style="opacity:1;fill:#3465a4;fill-opacity:1;stroke:#204a87;stroke-width:2.41273284;stroke-linecap:round;stroke-linejoin:miter;stroke-miterlimit:4;stroke-dasharray:none;stroke-dashoffset:0;stroke-opacity:1" id="path4104" d="M 241,164.40942 A 48.5,28 0 1 1 144,164.40942 A 48.5,28 0 1 1 241,164.40942 z" transform="translate(-11,-6)"/><path transform="translate(-11,-6)" style="opacity:.10526315;fill:#fff;fill-opacity:1;stroke:none;stroke-width:2;stroke-linecap:round;stroke-linejoin:miter;stroke-miterlimit:4;stroke-dashoffset:0;stroke-opacity:1" id="path4106" d="M 147.81331,175.30492 C 145.358,171.95542 144,168.27342 144,164.40942 C 144,148.95342 165.728,136.40942 192.5,136.40942 C 205.886,136.40942 218.011,139.54542 226.7895,144.61342 C 231.17875,147.14742 234.73137,150.16442 237.18669,153.51392 C 188.16058,147.96257 190.2741,177.28904 147.81331,175.30492 z"/><text xml:space="preserve" style="font-size:16px;font-style:normal;font-variant:normal;font-weight:400;font-stretch:normal;text-align:center;line-height:125%;writing-mode:lr-tb;text-anchor:middle;fill:#fff;fill-opacity:1;stroke:none;stroke-width:1px;stroke-linecap:butt;stroke-linejoin:miter;stroke-opacity:1;font-family:Bitstream Vera Sans;-inkscape-font-specification:Bitstream Vera Sans" id="text4108" x="182" y="165.409"><tspan id="tspan4110" x="182" y="165.409">Creole</tspan></text></g><g id="g4112" transform="matrix(1.3429121,0,0,1.3423417,281.26146,-61.63957)"><path id="path4114" d="M 241,164.40942 A 48.5,28 0 1 1 144,164.40942 A 48.5,28 0 1 1 241,164.40942 z" transform="translate(-11,-6)" style="opacity:1;fill:#3465a4;fill-opacity:1;stroke:#204a87;stroke-width:2.41273284;stroke-linecap:round;stroke-linejoin:miter;stroke-miterlimit:4;stroke-dasharray:none;stroke-dashoffset:0;stroke-opacity:1"/><path id="path4116" d="M 147.81331,175.30492 C 145.358,171.95542 144,168.27342 144,164.40942 C 144,148.95342 165.728,136.40942 192.5,136.40942 C 205.886,136.40942 218.011,139.54542 226.7895,144.61342 C 231.17875,147.14742 234.73137,150.16442 237.18669,153.51392 C 188.16058,147.96257 190.2741,177.28904 147.81331,175.30492 z" style="opacity:.10526315;fill:#fff;fill-opacity:1;stroke:none;stroke-width:2;stroke-linecap:round;stroke-linejoin:miter;stroke-miterlimit:4;stroke-dashoffset:0;stroke-opacity:1" transform="translate(-11,-6)"/><text id="text4118" x="182" y="165.409" style="font-size:16px;font-style:normal;font-variant:normal;font-weight:400;font-stretch:normal;text-align:center;line-height:125%;writing-mode:lr-tb;text-anchor:middle;fill:#fff;fill-opacity:1;stroke:none;stroke-width:1px;stroke-linecap:butt;stroke-linejoin:miter;stroke-opacity:1;font-family:Bitstream Vera Sans;-inkscape-font-specification:Bitstream Vera Sans" xml:space="preserve"><tspan id="tspan4120" x="182" y="165.409">Dokuwiki</tspan></text></g><g id="g4122" transform="matrix(1.3429121,0,0,1.3423417,221.26146,31.36043)"><path style="opacity:1;fill:#3465a4;fill-opacity:1;stroke:#204a87;stroke-width:2.41273284;stroke-linecap:round;stroke-linejoin:miter;stroke-miterlimit:4;stroke-dasharray:none;stroke-dashoffset:0;stroke-opacity:1" id="path4124" d="M 241,164.40942 A 48.5,28 0 1 1 144,164.40942 A 48.5,28 0 1 1 241,164.40942 z" transform="translate(-11,-6)"/><path transform="translate(-11,-6)" style="opacity:.10526315;fill:#fff;fill-opacity:1;stroke:none;stroke-width:2;stroke-linecap:round;stroke-linejoin:miter;stroke-miterlimit:4;stroke-dashoffset:0;stroke-opacity:1" id="path4126" d="M 147.81331,175.30492 C 145.358,171.95542 144,168.27342 144,164.40942 C 144,148.95342 165.728,136.40942 192.5,136.40942 C 205.886,136.40942 218.011,139.54542 226.7895,144.61342 C 231.17875,147.14742 234.73137,150.16442 237.18669,153.51392 C 188.16058,147.96257 190.2741,177.28904 147.81331,175.30492 z"/><text xml:space="preserve" style="font-size:16px;font-style:normal;font-variant:normal;font-weight:400;font-stretch:normal;text-align:center;line-height:125%;writing-mode:lr-tb;text-anchor:middle;fill:#fff;fill-opacity:1;stroke:none;stroke-width:1px;stroke-linecap:butt;stroke-linejoin:miter;stroke-opacity:1;font-family:Bitstream Vera Sans;-inkscape-font-specification:Bitstream Vera Sans" id="text4128" x="182" y="165.409"><tspan id="tspan4130" x="182" y="165.409">Confluence</tspan></text></g><g id="g4132" transform="matrix(1.3429121,0,0,1.3423417,51.26146,-165.63957)"><path id="path4134" d="M 241,164.40942 A 48.5,28 0 1 1 144,164.40942 A 48.5,28 0 1 1 241,164.40942 z" transform="translate(-11,-6)" style="opacity:1;fill:#3465a4;fill-opacity:1;stroke:#204a87;stroke-width:2.41273284;stroke-linecap:round;stroke-linejoin:miter;stroke-miterlimit:4;stroke-dasharray:none;stroke-dashoffset:0;stroke-opacity:1"/><path id="path4136" d="M 147.81331,175.30492 C 145.358,171.95542 144,168.27342 144,164.40942 C 144,148.95342 165.728,136.40942 192.5,136.40942 C 205.886,136.40942 218.011,139.54542 226.7895,144.61342 C 231.17875,147.14742 234.73137,150.16442 237.18669,153.51392 C 188.16058,147.96257 190.2741,177.28904 147.81331,175.30492 z" style="opacity:.10526315;fill:#fff;fill-opacity:1;stroke:none;stroke-width:2;stroke-linecap:round;stroke-linejoin:miter;stroke-miterlimit:4;stroke-dashoffset:0;stroke-opacity:1" transform="translate(-11,-6)"/><text id="text4138" x="182" y="165.409" style="font-size:16px;font-style:normal;font-variant:normal;font-weight:400;font-stretch:normal;text-align:center;line-height:125%;writing-mode:lr-tb;text-anchor:middle;fill:#fff;fill-opacity:1;stroke:none;stroke-width:1px;stroke-linecap:butt;stroke-linejoin:miter;stroke-opacity:1;font-family:Bitstream Vera Sans;-inkscape-font-specification:Bitstream Vera Sans" xml:space="preserve"><tspan id="tspan4140" x="182" y="165.409">ReST</tspan></text></g><g id="g4142" transform="matrix(1.3429121,0,0,1.3423417,51.26146,41.36043)"><path style="opacity:1;fill:#3465a4;fill-opacity:1;stroke:#204a87;stroke-width:2.41273284;stroke-linecap:round;stroke-linejoin:miter;stroke-miterlimit:4;stroke-dasharray:none;stroke-dashoffset:0;stroke-opacity:1" id="path4144" d="M 241,164.40942 A 48.5,28 0 1 1 144,164.40942 A 48.5,28 0 1 1 241,164.40942 z" transform="translate(-11,-6)"/><path transform="translate(-11,-6)" style="opacity:.10526315;fill:#fff;fill-opacity:1;stroke:none;stroke-width:2;stroke-linecap:round;stroke-linejoin:miter;stroke-miterlimit:4;stroke-dashoffset:0;stroke-opacity:1" id="path4146" d="M 147.81331,175.30492 C 145.358,171.95542 144,168.27342 144,164.40942 C 144,148.95342 165.728,136.40942 192.5,136.40942 C 205.886,136.40942 218.011,139.54542 226.7895,144.61342 C 231.17875,147.14742 234.73137,150.16442 237.18669,153.51392 C 188.16058,147.96257 190.2741,177.28904 147.81331,175.30492 z"/><text xml:space="preserve" style="font-size:16px;font-style:normal;font-variant:normal;font-weight:400;font-stretch:normal;text-align:center;line-height:125%;writing-mode:lr-tb;text-anchor:middle;fill:#fff;fill-opacity:1;stroke:none;stroke-width:1px;stroke-linecap:butt;stroke-linejoin:miter;stroke-opacity:1;font-family:Bitstream Vera Sans;-inkscape-font-specification:Bitstream Vera Sans" id="text4148" x="182" y="165.409"><tspan id="tspan4150" x="182" y="165.409">ODF</tspan></text></g><g id="g4152" transform="matrix(1.3429121,0,0,1.3423417,-118.73854,-155.63957)"><path id="path4154" d="M 241,164.40942 A 48.5,28 0 1 1 144,164.40942 A 48.5,28 0 1 1 241,164.40942 z" transform="translate(-11,-6)" style="opacity:1;fill:#3465a4;fill-opacity:1;stroke:#204a87;stroke-width:2.41273284;stroke-linecap:round;stroke-linejoin:miter;stroke-miterlimit:4;stroke-dasharray:none;stroke-dashoffset:0;stroke-opacity:1"/><path id="path4156" d="M 147.81331,175.30492 C 145.358,171.95542 144,168.27342 144,164.40942 C 144,148.95342 165.728,136.40942 192.5,136.40942 C 205.886,136.40942 218.011,139.54542 226.7895,144.61342 C 231.17875,147.14742 234.73137,150.16442 237.18669,153.51392 C 188.16058,147.96257 190.2741,177.28904 147.81331,175.30492 z" style="opacity:.10526315;fill:#fff;fill-opacity:1;stroke:none;stroke-width:2;stroke-linecap:round;stroke-linejoin:miter;stroke-miterlimit:4;stroke-dashoffset:0;stroke-opacity:1" transform="translate(-11,-6)"/><text id="text4158" x="182" y="165.409" style="font-size:16px;font-style:normal;font-variant:normal;font-weight:400;font-stretch:normal;text-align:center;line-height:125%;writing-mode:lr-tb;text-anchor:middle;fill:#fff;fill-opacity:1;stroke:none;stroke-width:1px;stroke-linecap:butt;stroke-linejoin:miter;stroke-opacity:1;font-family:Bitstream Vera Sans;-inkscape-font-specification:Bitstream Vera Sans" xml:space="preserve"><tspan id="tspan4160" x="182" y="165.409">(X)Html</tspan></text></g><g id="g4162" transform="matrix(1.3429121,0,0,1.3423417,-168.73854,-61.63957)"><path style="opacity:1;fill:#3465a4;fill-opacity:1;stroke:#204a87;stroke-width:2.41273284;stroke-linecap:round;stroke-linejoin:miter;stroke-miterlimit:4;stroke-dasharray:none;stroke-dashoffset:0;stroke-opacity:1" id="path4164" d="M 241,164.40942 A 48.5,28 0 1 1 144,164.40942 A 48.5,28 0 1 1 241,164.40942 z" transform="translate(-11,-6)"/><path transform="translate(-11,-6)" style="opacity:.10526315;fill:#fff;fill-opacity:1;stroke:none;stroke-width:2;stroke-linecap:round;stroke-linejoin:miter;stroke-miterlimit:4;stroke-dashoffset:0;stroke-opacity:1" id="path4166" d="M 147.81331,175.30492 C 145.358,171.95542 144,168.27342 144,164.40942 C 144,148.95342 165.728,136.40942 192.5,136.40942 C 205.886,136.40942 218.011,139.54542 226.7895,144.61342 C 231.17875,147.14742 234.73137,150.16442 237.18669,153.51392 C 188.16058,147.96257 190.2741,177.28904 147.81331,175.30492 z"/><text xml:space="preserve" style="font-size:16px;font-style:normal;font-variant:normal;font-weight:400;font-stretch:normal;text-align:center;line-height:125%;writing-mode:lr-tb;text-anchor:middle;fill:#fff;fill-opacity:1;stroke:none;stroke-width:1px;stroke-linecap:butt;stroke-linejoin:miter;stroke-opacity:1;font-family:Bitstream Vera Sans;-inkscape-font-specification:Bitstream Vera Sans" id="text4168" x="182" y="165.409"><tspan id="tspan4170" x="182" y="165.409">eZ XML</tspan></text></g><g id="g4172" transform="matrix(1.3429121,0,0,1.3423417,-118.73854,31.36043)"><path id="path4174" d="M 241,164.40942 A 48.5,28 0 1 1 144,164.40942 A 48.5,28 0 1 1 241,164.40942 z" transform="translate(-11,-6)" style="opacity:1;fill:#3465a4;fill-opacity:1;stroke:#204a87;stroke-width:2.41273284;stroke-linecap:round;stroke-linejoin:miter;stroke-miterlimit:4;stroke-dasharray:none;stroke-dashoffset:0;stroke-opacity:1"/><path id="path4176" d="M 147.81331,175.30492 C 145.358,171.95542 144,168.27342 144,164.40942 C 144,148.95342 165.728,136.40942 192.5,136.40942 C 205.886,136.40942 218.011,139.54542 226.7895,144.61342 C 231.17875,147.14742 234.73137,150.16442 237.18669,153.51392 C 188.16058,147.96257 190.2741,177.28904 147.81331,175.30492 z" style="opacity:.10526315;fill:#fff;fill-opacity:1;stroke:none;stroke-width:2;stroke-linecap:round;stroke-linejoin:miter;stroke-miterlimit:4;stroke-dashoffset:0;stroke-opacity:1" transform="translate(-11,-6)"/><text id="text4178" x="182" y="165.409" style="font-size:16px;font-style:normal;font-variant:normal;font-weight:400;font-stretch:normal;text-align:center;line-height:125%;writing-mode:lr-tb;text-anchor:middle;fill:#fff;fill-opacity:1;stroke:none;stroke-width:1px;stroke-linecap:butt;stroke-linejoin:miter;stroke-opacity:1;font-family:Bitstream Vera Sans;-inkscape-font-specification:Bitstream Vera Sans" xml:space="preserve"><tspan id="tspan4180" x="182" y="165.409">PDF</tspan></text></g><path style="fill:#999;fill-opacity:.75;fill-rule:evenodd;stroke:#999;stroke-width:2;stroke-linecap:butt;stroke-linejoin:miter;stroke-opacity:1;stroke-miterlimit:4;stroke-dasharray:none" id="path4184" d="M 366.85912,151 L 458.24873,151"/><path style="fill:#999;fill-opacity:.75;fill-rule:evenodd;stroke:#999;stroke-width:2;stroke-linecap:butt;stroke-linejoin:miter;stroke-opacity:1;stroke-miterlimit:4;stroke-dasharray:none" id="path4186" d="M 366.85912,190.31116 L 398.24873,207.48313"/><path style="fill:#000;fill-opacity:.75;fill-rule:evenodd;stroke:#000;stroke-width:2;stroke-linecap:butt;stroke-linejoin:miter;stroke-opacity:1;stroke-miterlimit:4;stroke-dasharray:none" id="path4190" d="M 295.00001,86.204929 L 295.00001,108.7951"/><path style="fill:#000;fill-opacity:.75;fill-rule:evenodd;stroke:#000;stroke-width:2;stroke-linecap:butt;stroke-linejoin:miter;stroke-opacity:1;stroke-miterlimit:4;stroke-dasharray:none" id="path4192" d="M 191.75129,93.909534 L 223.1409,111.26614"/><path style="fill:#fcaf3e;fill-opacity:.75;fill-rule:evenodd;stroke:#fcaf3e;stroke-width:2;stroke-linecap:butt;stroke-linejoin:miter;stroke-opacity:1;stroke-miterlimit:4;stroke-dasharray:none" id="path4194" d="M 191.75129,53.073459 L 228.24873,50.926551"/><path style="fill:#999;fill-opacity:.75;fill-rule:evenodd;stroke:#999;stroke-width:2;stroke-linecap:butt;stroke-linejoin:miter;stroke-opacity:1;stroke-miterlimit:4;stroke-dasharray:none" id="path4198" d="M 191.75129,207.48313 L 223.1409,190.31116"/><path style="fill:#000;fill-opacity:.75;fill-rule:evenodd;stroke:#000;stroke-width:2;stroke-linecap:butt;stroke-linejoin:miter;stroke-opacity:1;stroke-miterlimit:4;stroke-dasharray:none" id="path4200" d="M 141.75129,151 L 223.1409,151"/><text xml:space="preserve" style="font-size:24.89565085999999994px;font-style:normal;font-weight:400;fill:#999;fill-opacity:1;stroke:#999;stroke-width:1px;stroke-linecap:butt;stroke-linejoin:miter;stroke-opacity:1;font-family:Bitstream Vera Sans" id="text5016" x="-308.138" y="196.602" transform="scale(-1.2524901,0.7984095)"><tspan id="tspan5018" x="-308.138" y="196.602">➤</tspan></text><text id="text5020" x="-127.698" y="196.602" transform="scale(-1.2524901,0.7984095)" style="font-size:24.89565085999999994px;font-style:normal;font-weight:400;fill:#000;fill-opacity:1;stroke:#000;stroke-width:1px;stroke-linecap:butt;stroke-linejoin:miter;stroke-opacity:1;font-family:Bitstream Vera Sans" xml:space="preserve"><tspan id="tspan5022" x="-127.698" y="196.602">➤</tspan></text><text xml:space="preserve" style="font-size:24.89565085999999994px;font-style:normal;font-weight:400;fill:#000;fill-opacity:1;stroke:#000;stroke-width:1px;stroke-linecap:butt;stroke-linejoin:miter;stroke-opacity:1;font-family:Bitstream Vera Sans" id="text5024" x="162.767" y="196.602" transform="scale(1.2524901,0.7984095)"><tspan id="tspan5026" x="162.767" y="196.602">➤</tspan></text><text xml:space="preserve" style="font-size:24.89565085999999994px;font-style:normal;font-weight:400;fill:#000;fill-opacity:1;stroke:#000;stroke-width:1px;stroke-linecap:butt;stroke-linejoin:miter;stroke-opacity:1;font-family:Bitstream Vera Sans" id="text5052" x="77.207" y="-361.558" transform="matrix(0,1.2524901,-0.7984095,0,0,0)"><tspan id="tspan5054" x="77.207" y="-361.558">➤</tspan></text><text id="text5056" x="-78.065" y="-361.558" transform="matrix(0,-1.2524901,-0.7984095,0,0,0)" style="font-size:24.89565085999999994px;font-style:normal;font-weight:400;fill:#000;fill-opacity:1;stroke:#000;stroke-width:1px;stroke-linecap:butt;stroke-linejoin:miter;stroke-opacity:1;font-family:Bitstream Vera Sans" xml:space="preserve"><tspan id="tspan5058" x="-78.065" y="-361.558">➤</tspan></text><text xml:space="preserve" style="font-size:24.89565085999999994px;font-style:normal;font-weight:400;fill:#000;fill-opacity:1;stroke:#000;stroke-width:1px;stroke-linecap:butt;stroke-linejoin:miter;stroke-opacity:1;font-family:Bitstream Vera Sans" id="text5068" x="-179.87" y="12.619" transform="matrix(-1.1155656,-0.569425,0.3629844,-0.7111259,0,0)"><tspan id="tspan5070" x="-179.87" y="12.619">➤</tspan></text><text id="text5072" x="-338.453" y="4.604" transform="matrix(-1.1155656,-0.569425,0.3629844,-0.7111259,0,0)" style="font-size:24.89565085999999994px;font-style:normal;font-weight:400;fill:#999;fill-opacity:1;stroke:#999;stroke-width:1px;stroke-linecap:butt;stroke-linejoin:miter;stroke-opacity:1;font-family:Bitstream Vera Sans" xml:space="preserve"><tspan id="tspan5074" x="-338.453" y="4.604">➤</tspan></text><g id="g2477" style="fill:#000;stroke:#000"><path id="path4182" d="M 366.85912,111.26614 L 398.24873,93.909535" style="fill:#000;fill-opacity:.75;fill-rule:evenodd;stroke:#000;stroke-width:2;stroke-linecap:butt;stroke-linejoin:miter;stroke-opacity:1;stroke-miterlimit:4;stroke-dasharray:none"/><text xml:space="preserve" style="font-size:24.89565085999999994px;font-style:normal;font-weight:400;fill:#000;fill-opacity:1;stroke:#000;stroke-width:1px;stroke-linecap:butt;stroke-linejoin:miter;stroke-opacity:1;font-family:Bitstream Vera Sans" id="text5064" x="240.976" y="-324.369" transform="matrix(1.1155656,-0.569425,-0.3629844,-0.7111259,0,0)"><tspan id="tspan5066" x="240.976" y="-324.369">➤</tspan></text><text id="text5076" x="-229.11" y="340.651" transform="matrix(-1.1155656,0.569425,0.3629844,0.7111259,0,0)" style="font-size:24.89565085999999994px;font-style:normal;font-weight:400;fill:#000;fill-opacity:1;stroke:#000;stroke-width:1px;stroke-linecap:butt;stroke-linejoin:miter;stroke-opacity:1;font-family:Bitstream Vera Sans" xml:space="preserve"><tspan id="tspan5078" x="-229.11" y="340.651">➤</tspan></text></g><text id="text5080" x="-68.742" y="348.642" transform="matrix(-1.1155656,0.569425,0.3629844,0.7111259,0,0)" style="font-size:24.89565085999999994px;font-style:normal;font-weight:400;fill:#999;fill-opacity:1;stroke:#999;stroke-width:1px;stroke-linecap:butt;stroke-linejoin:miter;stroke-opacity:1;font-family:Bitstream Vera Sans" xml:space="preserve"><tspan id="tspan5082" x="-68.742" y="348.642">➤</tspan></text><text id="text5084" x="189.241" y="4.256" transform="matrix(1.1155656,0.569425,-0.3629844,0.7111259,0,0)" style="font-size:24.89565085999999994px;font-style:normal;font-weight:400;fill:#000;fill-opacity:1;stroke:#000;stroke-width:1px;stroke-linecap:butt;stroke-linejoin:miter;stroke-opacity:1;font-family:Bitstream Vera Sans" xml:space="preserve"><tspan id="tspan5086" x="189.241" y="4.256">➤</tspan></text><text xml:space="preserve" style="font-size:24.89565085999999994px;font-style:normal;font-weight:400;fill:#fcaf3e;fill-opacity:1;stroke:#fcaf3e;stroke-width:1px;stroke-linecap:butt;stroke-linejoin:miter;stroke-opacity:1;font-family:Bitstream Vera Sans" id="text5088" x="-158.862" y="97.188" transform="matrix(-1.2468837,0.1183742,7.5458566e-2,0.7948357,0,0)"><tspan id="tspan5090" x="-158.862" y="97.188">➤</tspan></text><rect style="opacity:.7826087;fill:#fff;fill-opacity:1;stroke:none" id="rect2516" width="156" height="88" x="220" y="210"/><path style="fill:#000;fill-opacity:.75;fill-rule:evenodd;stroke:#000;stroke-width:2;stroke-linecap:butt;stroke-linejoin:miter;stroke-opacity:1;stroke-miterlimit:4;stroke-dasharray:none" id="path4188" d="M 295.00001,193.2049 L 295.00001,214.79508"/><text id="text5048" x="162.637" y="-361.558" transform="matrix(0,1.2524901,-0.7984095,0,0,0)" style="font-size:24.89565085999999994px;font-style:normal;font-weight:400;fill:#000;fill-opacity:1;stroke:#000;stroke-width:1px;stroke-linecap:butt;stroke-linejoin:miter;stroke-opacity:1;font-family:Bitstream Vera Sans" xml:space="preserve"><tspan id="tspan5050" x="162.637" y="-361.558">➤</tspan></text><text xml:space="preserve" style="font-size:24.89565085999999994px;font-style:normal;font-weight:400;fill:#000;fill-opacity:1;stroke:#000;stroke-width:1px;stroke-linecap:butt;stroke-linejoin:miter;stroke-opacity:1;font-family:Bitstream Vera Sans" id="text5060" x="-164.294" y="-361.558" transform="matrix(0,-1.2524901,-0.7984095,0,0,0)"><tspan id="tspan5062" x="-164.294" y="-361.558">➤</tspan></text></g></svg>