<svg xmlns="http://www.w3.org/2000/svg" xmlns:cc="http://web.resource.org/cc/" xmlns:svg="http://www.w3.org/2000/svg" xmlns:xlink="http://www.w3.org/1999/xlink" id="svg2" width="210mm" height="297mm"><defs id="defs4"><linearGradient id="linearGradient4265"><stop style="stop-color:#c1ff00;stop-opacity:1" id="stop4267" offset="0"/><stop style="stop-color:#fff;stop-opacity:1" id="stop4269" offset="1"/></linearGradient><linearGradient id="linearGradient4271" x1="403.772" x2="403.772" y1="381.914" y2="287.294" gradientUnits="userSpaceOnUse" xlink:href="#linearGradient4265"/><linearGradient id="linearGradient8179" x1="403.772" x2="403.772" y1="381.914" y2="287.294" gradientUnits="userSpaceOnUse" xlink:href="#linearGradient4265"/></defs><metadata id="metadata7"/><g id="layer1"><g id="g8174" transform="translate(-124,-246)"><path id="path3294" d="M 396,342.36218 C 400.21163,344.468 395.23927,349.0783 392.5,349.36218 C 385.07674,350.13147 381.01461,341.64878 382,335.36218 C 383.76263,324.11692 396.26795,318.69994 406.5,321.36218 C 421.51596,325.26914 428.45262,342.25916 424,356.36219 C 418.06535,375.1593 396.44943,383.65114 378.49999,377.36218 C 355.91246,369.44816 345.85141,343.14679 354,321.36217 C 363.86904,294.97809 394.88646,283.34056 420.50001,293.36219 C 450.68469,305.17233 463.90305,340.92358 452,370.36219" transform="translate(-186,0)" style="fill:url(#linearGradient8179);fill-opacity:1;fill-rule:evenodd;stroke:#000;stroke-width:7;stroke-linecap:round;stroke-linejoin:miter;stroke-miterlimit:4;stroke-dasharray:none;stroke-opacity:1"/><text id="text4273" x="277.509" y="367.243" style="font-size:80px;font-style:normal;font-weight:400;fill:#000;fill-opacity:1;stroke:none;stroke-width:1px;stroke-linecap:butt;stroke-linejoin:miter;stroke-opacity:1;font-family:Trebuchet MS" xml:space="preserve"><tspan style="font-weight:700;font-family:Trebuchet MS" id="tspan4275" x="277.509" y="367.243">Slimey</tspan></text></g></g></svg>